#!OML:ASF X:\für Bonn\!DataBase\2005_08_11_Bastian_Final\c3d\Bastian.ASF
:FULLY-SPECIFIED
:DEGREES
125
root -1.4424 18.8935 -8.67521 183.662 -55.61 -194.708
lowerback 10.5946 -5.7451 -5.13638
upperback 0.0548293 -8.30463 0.205823
thorax -5.09015 -3.98524 4.24903
lowerneck 2.32428 -14.9957 -10.5318
upperneck -6.18336 -20.1103 12.9755
head 0.180247 -10.1906 5.17293
rclavicle 2.7308e-014 -2.38542e-014
rhumerus -118.546 -154.52 157.12
rradius 47.562
rwrist -140.871
rhand -14.854 18.746
rfingers 7.12502
rthumb 11.3055 -10.9293
lclavicle 2.7308e-014 -2.38542e-014
lhumerus 104.827 -7.31937 68.3943
lradius 26.4751
lwrist 208.969
lhand -8.43696 21.5691
lfingers 7.12502
lthumb 17.4884 50.8024
rfemur -0.863549 10.4429 9.44021
rtibia 30.7906
rfoot -0.731476 -21.6339
rtoes -1.02998
lfemur 7.6393 2.97917 -13.5244
ltibia 24.4273
lfoot 22.1423 -8.10746
ltoes -40.763
126
root -1.41487 18.8765 -8.71874 183.526 -55.629 -194.761
lowerback 10.6594 -5.74688 -5.16327
upperback 0.173455 -8.31277 0.222442
thorax -4.99389 -3.99641 4.28057
lowerneck 2.48193 -14.9262 -10.5929
upperneck -6.17767 -20.0288 12.9509
head 0.151317 -10.1514 5.19272
rclavicle -1.186e-013 -1.59028e-015
rhumerus -119.484 -154.92 157.673
rradius 48.9369
rwrist -141.155
rhand -12.5903 18.6643
rfingers 7.12502
rthumb 13.4881 -10.879
lclavicle -1.186e-013 -1.59028e-015
lhumerus 104.288 -6.14579 66.0922
lradius 27.7274
lwrist 210.393
lhand -8.55667 23.2041
lfingers 7.12502
lthumb 17.3732 52.4477
rfemur -0.726675 9.50012 9.40432
rtibia 30.8449
rfoot -0.820383 -20.7495
rtoes -1.1826
lfemur 7.62465 3.26393 -13.3989
ltibia 24.6924
lfoot 22.0501 -8.47419
ltoes -41.2139
127
root -1.38753 18.8567 -8.76061 183.385 -55.6751 -194.766
lowerback 10.7005 -5.74807 -5.12974
upperback 0.258389 -8.3122 0.227203
thorax -4.93119 -4.00233 4.26598
lowerneck 2.71444 -14.8731 -10.6654
upperneck -6.13736 -19.9788 12.9392
head 0.12682 -10.1295 5.21976
rclavicle -5.2007e-014 -4.77083e-015
rhumerus -120.539 -155.344 158.28
rradius 50.4355
rwrist -141.39
rhand -11.0896 18.4509
rfingers 7.12502
rthumb 14.9342 -10.9907
lclavicle -5.2007e-014 -4.77083e-015
lhumerus 103.577 -5.21915 64.0877
lradius 29.1608
lwrist 211.5
lhand -8.72176 24.644
lfingers 7.12502
lthumb 17.2143 53.9015
rfemur -0.64086 8.3073 9.3345
rtibia 30.9158
rfoot -0.921202 -19.6744
rtoes -1.38014
lfemur 7.57959 3.48006 -13.2572
ltibia 24.9704
lfoot 21.9496 -8.74717
ltoes -41.6153
128
root -1.35992 18.8351 -8.80151 183.187 -55.6967 -194.713
lowerback 10.7488 -5.72385 -5.09922
upperback 0.358543 -8.27763 0.250902
thorax -4.85659 -3.99221 4.26828
lowerneck 2.87708 -14.8472 -10.6665
upperneck -6.05458 -19.9596 12.8554
head 0.114257 -10.12 5.20819
rclavicle -7.37491e-014 3.18055e-015
rhumerus -121.597 -155.719 158.833
rradius 52.0178
rwrist -141.641
rhand -10.3856 18.0885
rfingers 7.12502
rthumb 15.6123 -11.3015
lclavicle -7.37491e-014 3.18055e-015
lhumerus 102.813 -4.54457 62.5122
lradius 30.6049
lwrist 212.284
lhand -8.92272 25.6476
lfingers 7.12502
lthumb 17.0208 54.9219
rfemur -0.552804 7.271 9.32584
rtibia 31.0109
rfoot -1.14189 -18.7065
rtoes -1.41682
lfemur 7.56776 3.73433 -13.0732
ltibia 25.2451
lfoot 21.8278 -8.98064
ltoes -42.0991
129
root -1.33241 18.8105 -8.84048 182.997 -55.7565 -194.672
lowerback 10.8017 -5.70875 -5.0742
upperback 0.460054 -8.25673 0.267982
thorax -4.78198 -3.98887 4.26879
lowerneck 3.06204 -14.8122 -10.6314
upperneck -6.0219 -19.9264 12.7918
head 0.080647 -10.1062 5.20319
rclavicle 2.16178e-015 3.02153e-014
rhumerus -122.568 -156.073 159.137
rradius 53.6208
rwrist -141.637
rhand -10.2125 17.676
rfingers 7.12502
rthumb 15.779 -11.7008
lclavicle 2.16178e-015 3.02153e-014
lhumerus 102.032 -4.10537 61.3053
lradius 32.0104
lwrist 212.705
lhand -9.13028 26.2352
lfingers 7.12502
lthumb 16.821 55.5266
rfemur -0.437239 6.41673 9.36556
rtibia 31.1164
rfoot -1.49696 -17.9572
rtoes -1.451
lfemur 7.56089 3.93581 -12.9005
ltibia 25.5262
lfoot 21.6882 -9.18499
ltoes -42.7053
130
root -1.30471 18.7841 -8.87729 182.804 -55.8101 -194.592
lowerback 10.8397 -5.68481 -5.02082
upperback 0.541627 -8.21971 0.286186
thorax -4.72554 -3.9767 4.25295
lowerneck 3.30366 -14.7856 -10.585
upperneck -6.03198 -19.9066 12.7458
head 0.0278457 -10.1016 5.20776
rclavicle -7.0817e-015 -6.36111e-015
rhumerus -123.602 -156.446 159.458
rradius 55.2551
rwrist -141.581
rhand -10.3481 17.2982
rfingers 7.12502
rthumb 15.6484 -12.0889
lclavicle -7.0817e-015 -6.36111e-015
lhumerus 101.265 -3.96714 60.5613
lradius 33.2469
lwrist 212.674
lhand -9.41467 26.7317
lfingers 7.12502
lthumb 16.5472 56.0462
rfemur -0.356211 5.71798 9.46034
rtibia 31.2339
rfoot -1.93394 -17.3579
rtoes -1.59372
lfemur 7.54743 4.099 -12.7154
ltibia 25.8095
lfoot 21.5148 -9.21022
ltoes -43.1119
131
root -1.27714 18.7567 -8.91205 182.609 -55.9011 -194.524
lowerback 10.8847 -5.6754 -4.95969
upperback 0.638516 -8.2026 0.286306
thorax -4.65865 -3.9756 4.21632
lowerneck 3.57554 -14.7467 -10.5138
upperneck -6.11175 -19.8682 12.7553
head -0.0485584 -10.0917 5.23185
rclavicle 1.2424e-015 -1.27222e-014
rhumerus -124.66 -156.806 159.677
rradius 56.9904
rwrist -141.5
rhand -10.7224 16.9072
rfingers 7.12502
rthumb 15.2879 -12.5078
lclavicle 1.2424e-015 -1.27222e-014
lhumerus 100.608 -3.94025 60.038
lradius 34.319
lwrist 212.354
lhand -9.71685 27.0292
lfingers 7.12502
lthumb 16.2563 56.3677
rfemur -0.242023 5.05689 9.5655
rtibia 31.3607
rfoot -2.46448 -16.8663
rtoes -1.39561
lfemur 7.5396 4.21749 -12.5374
ltibia 26.1048
lfoot 21.2935 -9.03922
ltoes -43.1837
132
root -1.2492 18.7278 -8.94666 182.375 -55.9833 -194.392
lowerback 10.9126 -5.66894 -4.89011
upperback 0.727962 -8.18654 0.304436
thorax -4.58847 -3.97489 4.19226
lowerneck 3.91654 -14.6902 -10.4978
upperneck -6.27727 -19.8089 12.8436
head -0.149473 -10.0754 5.29585
rclavicle -8.65459e-014 4.77083e-015
rhumerus -125.782 -157.167 159.883
rradius 58.8059
rwrist -141.481
rhand -11.1218 16.4343
rfingers 7.12502
rthumb 14.9031 -13.0096
lclavicle -8.65459e-014 4.77083e-015
lhumerus 99.9768 -4.01677 59.692
lradius 35.2652
lwrist 211.942
lhand -10.2128 27.2858
lfingers 7.12502
lthumb 15.7787 56.6627
rfemur -0.149098 4.38805 9.71113
rtibia 31.4975
rfoot -3.01958 -16.3809
rtoes -1.28647
lfemur 7.52857 4.32428 -12.3302
ltibia 26.408
lfoot 21.0082 -8.82977
ltoes -43.2614
133
root -1.22127 18.6972 -8.97797 182.168 -56.0881 -194.297
lowerback 10.94 -5.67091 -4.85605
upperback 0.838133 -8.18573 0.335365
thorax -4.48782 -3.98294 4.20064
lowerneck 4.18271 -14.6269 -10.5068
upperneck -6.43942 -19.7351 12.9465
head -0.235293 -10.05 5.36114
rclavicle 2.42517e-014 2.70347e-014
rhumerus -126.904 -157.52 160.037
rradius 60.6856
rwrist -141.501
rhand -11.4596 15.983
rfingers 7.12502
rthumb 14.5777 -13.4848
lclavicle 2.42517e-014 2.70347e-014
lhumerus 99.3863 -4.10277 59.4263
lradius 36.1176
lwrist 211.615
lhand -10.4786 27.4779
lfingers 7.12502
lthumb 15.5227 56.8748
rfemur -0.0521751 3.60841 9.81222
rtibia 31.636
rfoot -3.51951 -15.8543
rtoes -1.447
lfemur 7.50009 4.41494 -12.1529
ltibia 26.7336
lfoot 20.6997 -8.62967
ltoes -43.3966
134
root -1.19323 18.6655 -9.00753 181.887 -56.1998 -194.101
lowerback 10.9633 -5.66403 -4.73372
upperback 0.944116 -8.16322 0.346247
thorax -4.40676 -3.98094 4.13807
lowerneck 4.47923 -14.5723 -10.4134
upperneck -6.64886 -19.6675 13.044
head -0.349708 -10.0315 5.4172
rclavicle 5.97969e-014 -3.18055e-014
rhumerus -128.151 -157.85 160.211
rradius 62.5954
rwrist -141.677
rhand -11.8291 15.5211
rfingers 7.12502
rthumb 14.2217 -13.972
lclavicle 5.97969e-014 -3.18055e-014
lhumerus 98.8622 -4.22079 59.0296
lradius 36.8995
lwrist 211.511
lhand -10.5927 27.5674
lfingers 7.12502
lthumb 15.4129 56.9728
rfemur 0.0497876 2.92852 10.0035
rtibia 31.7704
rfoot -4.05872 -15.4392
rtoes -1.48037
lfemur 7.46103 4.47628 -11.922
ltibia 27.0786
lfoot 20.332 -8.38229
ltoes -43.4967
135
root -1.16511 18.6337 -9.03588 181.614 -56.3248 -193.913
lowerback 10.9811 -5.67431 -4.67365
upperback 1.0607 -8.16889 0.40867
thorax -4.2925 -3.99323 4.16393
lowerneck 4.71346 -14.502 -10.454
upperneck -6.84137 -19.5805 13.189
head -0.43349 -10.0003 5.49748
rclavicle 3.50482e-014 2.54444e-014
rhumerus -129.299 -158.182 160.372
rradius 64.5415
rwrist -141.939
rhand -12.2841 15.0774
rfingers 7.12502
rthumb 13.7832 -14.446
lclavicle 3.50482e-014 2.54444e-014
lhumerus 98.3544 -4.2729 58.6883
lradius 37.5862
lwrist 211.546
lhand -10.6417 27.608
lfingers 7.12502
lthumb 15.3657 57.017
rfemur 0.160078 2.30667 10.2046
rtibia 31.9023
rfoot -4.60786 -15.157
rtoes -1.28404
lfemur 7.40851 4.54932 -11.6954
ltibia 27.4423
lfoot 19.9493 -8.21752
ltoes -43.7665
136
root -1.13712 18.6019 -9.06213 181.318 -56.4635 -193.692
lowerback 10.9786 -5.68142 -4.56701
upperback 1.1935 -8.16513 0.449982
thorax -4.16057 -4.00289 4.13804
lowerneck 4.93595 -14.4424 -10.4631
upperneck -7.0433 -19.5048 13.3663
head -0.51657 -9.97691 5.58162
rclavicle 2.36802e-014 -4.13472e-014
rhumerus -130.514 -158.434 160.535
rradius 66.5016
rwrist -142.303
rhand -12.7455 14.5238
rfingers 7.12502
rthumb 13.3385 -15.0293
lclavicle 2.36802e-014 -4.13472e-014
lhumerus 97.895 -4.35315 58.2704
lradius 38.2601
lwrist 211.724
lhand -10.5692 27.5454
lfingers 7.12502
lthumb 15.4355 56.949
rfemur 0.275714 1.72647 10.4381
rtibia 32.0247
rfoot -5.15705 -14.9144
rtoes -1.32916
lfemur 7.34622 4.54548 -11.4732
ltibia 27.809
lfoot 19.5653 -7.91525
ltoes -43.8401
137
root -1.1091 18.5694 -9.08666 181.024 -56.6019 -193.466
lowerback 10.9816 -5.68499 -4.49077
upperback 1.33361 -8.15987 0.52654
thorax -4.01481 -4.01203 4.16474
lowerneck 5.09006 -14.3906 -10.4807
upperneck -7.24302 -19.4337 13.4888
head -0.592917 -9.95175 5.64555
rclavicle -3.28554e-014 -7.95139e-015
rhumerus -131.833 -158.744 160.899
rradius 68.5768
rwrist -142.674
rhand -12.9901 14.2078
rfingers 7.12502
rthumb 13.1027 -15.3606
lclavicle -3.28554e-014 -7.95139e-015
lhumerus 97.4435 -4.37879 57.8266
lradius 38.9442
lwrist 212.076
lhand -10.4042 27.4218
lfingers 7.12502
lthumb 15.5944 56.8132
rfemur 0.392528 1.30118 10.7094
rtibia 32.1408
rfoot -5.72802 -14.8444
rtoes -1.20708
lfemur 7.27618 4.62594 -11.2265
ltibia 28.1717
lfoot 19.1593 -7.78921
ltoes -44.0726
138
root -1.08099 18.5376 -9.10952 180.822 -56.7437 -193.372
lowerback 10.9992 -5.67954 -4.47136
upperback 1.47285 -8.15277 0.5547
thorax -3.87769 -4.01921 4.17395
lowerneck 5.25635 -14.347 -10.4333
upperneck -7.41268 -19.373 13.5976
head -0.668942 -9.93322 5.69659
rclavicle -3.08365e-014 2.54444e-014
rhumerus -133.269 -159.135 161.314
rradius 70.7147
rwrist -142.994
rhand -13.0363 14.0265
rfingers 7.12502
rthumb 13.0582 -15.5447
lclavicle -3.08365e-014 2.54444e-014
lhumerus 96.9711 -4.4266 57.2895
lradius 39.6625
lwrist 212.611
lhand -10.2578 27.2268
lfingers 7.12502
lthumb 15.7354 56.6071
rfemur 0.535467 1.06721 10.9445
rtibia 32.248
rfoot -6.36116 -14.9622
rtoes -1.07602
lfemur 7.2301 4.65612 -11.0793
ltibia 28.5216
lfoot 18.7411 -7.59317
ltoes -44.2463
139
root -1.05291 18.505 -9.13111 180.607 -56.8835 -193.278
lowerback 11.0393 -5.66925 -4.46815
upperback 1.60767 -8.14239 0.590186
thorax -3.75464 -4.02401 4.20219
lowerneck 5.46964 -14.3047 -10.4037
upperneck -7.62765 -19.3151 13.7374
head -0.760439 -9.91881 5.76477
rclavicle -7.75571e-015 -4.13472e-014
rhumerus -134.744 -159.569 161.77
rradius 72.9118
rwrist -143.402
rhand -13.028 13.9278
rfingers 7.12502
rthumb 13.0662 -15.6429
lclavicle -7.75571e-015 -4.13472e-014
lhumerus 96.477 -4.50755 56.7807
lradius 40.3955
lwrist 213.234
lhand -10.0733 26.9242
lfingers 7.12502
lthumb 15.9131 56.2904
rfemur 0.704265 0.961822 11.2083
rtibia 32.3422
rfoot -7.04992 -15.1961
rtoes -0.705221
lfemur 7.19479 4.73233 -10.9108
ltibia 28.863
lfoot 18.3244 -7.46576
ltoes -44.459
